<?xml version="1.0" encoding="UTF-8" standalone="no" ?>
<!DOCTYPE svg PUBLIC "-//W3C//DTD SVG 1.1//EN" "http://www.w3.org/Graphics/SVG/1.1/DTD/svg11.dtd">
<svg xmlns="http://www.w3.org/2000/svg" xmlns:xlink="http://www.w3.org/1999/xlink" version="1.1" width="1080" height="1080" viewBox="0 0 1080 1080" xml:space="preserve">
<desc>Created with Fabric.js 5.2.4</desc>
<defs>
</defs>
<g transform="matrix(1 0 0 1 540 540)" id="302b1a3f-1809-45ae-a624-a80fc3677eea"  >
</g>
<g transform="matrix(1 0 0 1 540 540)" id="c07806d0-c9b2-4dc5-9eaf-c596a2fcfe60"  >
<rect style="stroke: none; stroke-width: 1; stroke-dasharray: none; stroke-linecap: butt; stroke-dashoffset: 0; stroke-linejoin: miter; stroke-miterlimit: 4; fill: rgb(255,255,255); fill-rule: nonzero; opacity: 1; visibility: hidden;" vector-effect="non-scaling-stroke"  x="-540" y="-540" rx="0" ry="0" width="1080" height="1080" />
</g>
<g transform="matrix(1 0 0 1 540 540)"  >
<rect style="stroke: none; stroke-width: 1; stroke-dasharray: none; stroke-linecap: butt; stroke-dashoffset: 0; stroke-linejoin: miter; stroke-miterlimit: 4; fill: rgb(255,255,255); fill-rule: nonzero; opacity: 1; visibility: hidden;" vector-effect="non-scaling-stroke"  x="-600" y="-450" rx="0" ry="0" width="1200" height="900" />
</g>
<g transform="matrix(0.83 0 0 0.83 540.12 474.13)"  >
<path style="stroke: none; stroke-width: 1; stroke-dasharray: none; stroke-linecap: butt; stroke-dashoffset: 0; stroke-linejoin: miter; stroke-miterlimit: 4; fill: rgb(239,239,239); fill-rule: nonzero; opacity: 1;" vector-effect="non-scaling-stroke"  transform=" translate(-423, -460.95)" d="M 446.5 497.4 L 501.6 442.29999999999995 C 492.8 435.19999999999993 483.1 429.29999999999995 472.6 424.79999999999995 L 423.20000000000005 474.19999999999993 L 373.50000000000006 424.49999999999994 C 363.00000000000006 428.99999999999994 353.20000000000005 434.8999999999999 344.40000000000003 441.8999999999999 L 399.90000000000003 497.3999999999999 L 446.5 497.4 z" stroke-linecap="round" />
</g>
<g transform="matrix(0.83 0 0 0.83 606.08 540.21)"  >
<path style="stroke: none; stroke-width: 1; stroke-dasharray: none; stroke-linecap: butt; stroke-dashoffset: 0; stroke-linejoin: miter; stroke-miterlimit: 4; fill: rgb(239,239,239); fill-rule: nonzero; opacity: 1;" vector-effect="non-scaling-stroke"  transform=" translate(-502.15, -540.25)" d="M 489.1 540.5 L 538.4 491.2 C 533.9 480.7 528.1 470.9 521.1 462 L 465.90000000000003 517.2 L 465.90000000000003 563.7 L 520.7 618.5 C 527.8000000000001 609.7 533.7 600 538.2 589.5 L 489.1 540.5 z" stroke-linecap="round" />
</g>
<g transform="matrix(0.83 0 0 0.83 539.95 606.08)"  >
<path style="stroke: none; stroke-width: 1; stroke-dasharray: none; stroke-linecap: butt; stroke-dashoffset: 0; stroke-linejoin: miter; stroke-miterlimit: 4; fill: rgb(239,239,239); fill-rule: nonzero; opacity: 1;" vector-effect="non-scaling-stroke"  transform=" translate(-422.8, -619.3)" d="M 399.5 583.1 L 344.5 638.1 C 353.3 645.1 363.1 651 373.6 655.5 L 422.8 606.3 L 472 655.5 C 482.5 651 492.3 645.1 501.1 638.1 L 446.1 583.1 L 399.5 583.1 z" stroke-linecap="round" />
</g>
<g transform="matrix(0.83 0 0 0.83 474.04 539.92)"  >
<path style="stroke: none; stroke-width: 1; stroke-dasharray: none; stroke-linecap: butt; stroke-dashoffset: 0; stroke-linejoin: miter; stroke-miterlimit: 4; fill: rgb(239,239,239); fill-rule: nonzero; opacity: 1;" vector-effect="non-scaling-stroke"  transform=" translate(-343.7, -539.9)" d="M 380.1 516.7 L 324.8 461.40000000000003 C 317.7 470.20000000000005 311.8 479.90000000000003 307.3 490.40000000000003 L 356.8 539.9000000000001 L 307.3 589.4000000000001 C 311.8 599.9000000000001 317.7 609.6000000000001 324.8 618.4000000000001 L 380.1 563.1000000000001 L 380.1 516.7 z" stroke-linecap="round" />
</g>
<g transform="matrix(NaN NaN NaN NaN 0 0)"  >
<g style=""   >
</g>
</g>
<g transform="matrix(NaN NaN NaN NaN 0 0)"  >
<g style=""   >
</g>
</g>
<g transform="matrix(NaN NaN NaN NaN 0 0)"  >
<g style=""   >
</g>
</g>
<g transform="matrix(NaN NaN NaN NaN 0 0)"  >
<g style=""   >
</g>
</g>
<g transform="matrix(NaN NaN NaN NaN 0 0)"  >
<g style=""   >
</g>
</g>
<g transform="matrix(NaN NaN NaN NaN 0 0)"  >
<g style=""   >
</g>
</g>
<g transform="matrix(NaN NaN NaN NaN 0 0)"  >
<g style=""   >
</g>
</g>
<g transform="matrix(NaN NaN NaN NaN 0 0)"  >
<g style=""   >
</g>
</g>
</svg>