<?xml version="1.0" encoding="UTF-8" standalone="no" ?>
<!DOCTYPE svg PUBLIC "-//W3C//DTD SVG 1.1//EN" "http://www.w3.org/Graphics/SVG/1.1/DTD/svg11.dtd">
<svg xmlns="http://www.w3.org/2000/svg" xmlns:xlink="http://www.w3.org/1999/xlink" version="1.1" width="1200" height="900" viewBox="0 0 1200 900" xml:space="preserve">
<desc>Created with Fabric.js 5.2.4</desc>
<defs>
</defs>
<rect x="0" y="0" width="100%" height="100%" fill="transparent"></rect>
<g transform="matrix(1 0 0 1 600 450)" id="44303c48-61df-47ee-93c9-9247054b0061"  >
<rect style="stroke: none; stroke-width: 1; stroke-dasharray: none; stroke-linecap: butt; stroke-dashoffset: 0; stroke-linejoin: miter; stroke-miterlimit: 4; fill: rgb(255,255,255); fill-rule: nonzero; opacity: 1; visibility: hidden;" vector-effect="non-scaling-stroke"  x="-600" y="-450" rx="0" ry="0" width="1200" height="900" />
</g>
<g transform="matrix(0 0 0 0 0 0)" id="f68912e3-9d30-4479-857e-8de7f713fd4a"  >
</g>
<g transform="matrix(0.83 0 0 0.83 718.18 440.25)"  >
<path style="stroke: none; stroke-width: 1; stroke-dasharray: none; stroke-linecap: butt; stroke-dashoffset: 0; stroke-linejoin: miter; stroke-miterlimit: 4; fill: rgb(239,239,239); fill-rule: nonzero; opacity: 1;" vector-effect="non-scaling-stroke"  transform=" translate(-1103.9, -528.55)" d="M 595 585.7 L 595 517.5 C 595 516.5 595.4 515.5 596.1 514.8 L 618.6 492.29999999999995 C 619.3000000000001 491.59999999999997 620.3000000000001 491.19999999999993 621.3000000000001 491.19999999999993 L 788 491.19999999999993 C 790.1 491.19999999999993 791.8 492.8999999999999 791.8 494.99999999999994 L 791.8 512.0999999999999 C 791.8 514.1999999999999 790.0999999999999 515.8999999999999 788 515.8999999999999 L 623.5 515.8999999999999 C 621.4 515.8999999999999 619.7 517.5999999999999 619.7 519.6999999999998 L 619.7 537.1999999999998 C 619.7 539.2999999999998 621.4000000000001 540.9999999999998 623.5 540.9999999999998 L 788 540.9999999999998 C 790.1 540.9999999999998 791.8 542.6999999999998 791.8 544.7999999999997 L 791.8 560.7999999999997 C 791.8 562.8999999999997 790.0999999999999 564.5999999999997 788 564.5999999999997 L 623.5 564.5999999999997 C 621.4 564.5999999999997 619.7 566.2999999999997 619.7 568.3999999999996 L 619.7 585.6999999999996 C 619.7 587.7999999999996 618 589.4999999999995 615.9000000000001 589.4999999999995 L 598.8000000000001 589.4999999999995 C 596.7 589.5 595 587.8 595 585.7 z M 800.2 563.1 L 800.2 517.6 C 800.2 516.6 800.6 515.6 801.3000000000001 514.9 L 823.9000000000001 492.4 C 824.6000000000001 491.7 825.6000000000001 491.29999999999995 826.6000000000001 491.29999999999995 L 970.8000000000002 491.29999999999995 C 971.8000000000002 491.29999999999995 972.8000000000002 491.69999999999993 973.5000000000002 492.4 L 996.1000000000003 514.9 C 996.8000000000003 515.6 997.2000000000003 516.6 997.2000000000003 517.6 L 997.2000000000003 563.1 C 997.2000000000003 564.1 996.8000000000003 565.1 996.1000000000003 565.8000000000001 L 973.5000000000002 588.4000000000001 C 972.8000000000002 589.1000000000001 971.8000000000002 589.5000000000001 970.8000000000002 589.5000000000001 L 826.5 589.5000000000001 C 825.5 589.5000000000001 824.5 589.1000000000001 823.8 588.4000000000001 L 801.1999999999999 565.8000000000001 C 800.6 565.1 800.2 564.1 800.2 563.1 z M 828.7 564.7 L 968.4000000000001 564.7 C 970.5000000000001 564.7 972.2 563 972.2 560.9000000000001 L 972.2 519.8000000000001 C 972.2 517.7 970.5 516.0000000000001 968.4000000000001 516.0000000000001 L 828.7 516.0000000000001 C 826.6 516.0000000000001 824.9000000000001 517.7000000000002 824.9000000000001 519.8000000000001 L 824.9000000000001 560.9000000000001 C 824.9 563 826.6 564.7 828.7 564.7 z M 1005.4 563.1 L 1005.4 471.3 C 1005.4 469.2 1007.1 467.5 1009.1999999999999 467.5 L 1026.3 467.5 C 1028.3999999999999 467.5 1030.1 469.2 1030.1 471.3 L 1030.1 487.40000000000003 C 1030.1 489.50000000000006 1031.8 491.20000000000005 1033.8999999999999 491.20000000000005 L 1198.3999999999999 491.20000000000005 C 1200.4999999999998 491.20000000000005 1202.1999999999998 492.90000000000003 1202.1999999999998 495.00000000000006 L 1202.1999999999998 512.1 C 1202.1999999999998 514.2 1200.4999999999998 515.9 1198.3999999999999 515.9 L 1033.8999999999999 515.9 C 1031.8 515.9 1030.1 517.6 1030.1 519.6999999999999 L 1030.1 560.8 C 1030.1 562.9 1031.8 564.5999999999999 1033.8999999999999 564.5999999999999 L 1198.3999999999999 564.5999999999999 C 1200.4999999999998 564.5999999999999 1202.1999999999998 566.3 1202.1999999999998 568.3999999999999 L 1202.1999999999998 585.6999999999998 C 1202.1999999999998 587.7999999999998 1200.4999999999998 589.4999999999998 1198.3999999999999 589.4999999999998 L 1031.6999999999998 589.4999999999998 C 1030.6999999999998 589.4999999999998 1029.6999999999998 589.0999999999998 1028.9999999999998 588.3999999999997 L 1006.4999999999998 565.7999999999997 C 1005.8 565.1 1005.4 564.1 1005.4 563.1 z M 1210.6 563.1 L 1210.6 517.6 C 1210.6 516.6 1211 515.6 1211.6999999999998 514.9 L 1234.2999999999997 492.4 C 1234.9999999999998 491.7 1235.9999999999998 491.29999999999995 1236.9999999999998 491.29999999999995 L 1381.1999999999998 491.29999999999995 C 1382.1999999999998 491.29999999999995 1383.1999999999998 491.69999999999993 1383.8999999999999 492.4 L 1406.4999999999998 514.9 C 1407.1999999999998 515.6 1407.5999999999997 516.6 1407.5999999999997 517.6 L 1407.5999999999997 563.1 C 1407.5999999999997 564.1 1407.1999999999996 565.1 1406.4999999999998 565.8000000000001 L 1383.8999999999999 588.4000000000001 C 1383.1999999999998 589.1000000000001 1382.1999999999998 589.5000000000001 1381.1999999999998 589.5000000000001 L 1237 589.5000000000001 C 1236 589.5000000000001 1235 589.1000000000001 1234.3 588.4000000000001 L 1211.7 565.8000000000001 C 1211 565.1 1210.6 564.1 1210.6 563.1 z M 1239.2 564.7 L 1378.9 564.7 C 1381 564.7 1382.7 563 1382.7 560.9000000000001 L 1382.7 519.8000000000001 C 1382.7 517.7 1381 516.0000000000001 1378.9 516.0000000000001 L 1239.2 516.0000000000001 C 1237.1000000000001 516.0000000000001 1235.4 517.7000000000002 1235.4 519.8000000000001 L 1235.4 560.9000000000001 C 1235.4 563 1237.1 564.7 1239.2 564.7 z M 1415.9 585.7 L 1415.9 517.9000000000001 C 1415.9 516.8000000000001 1416.4 515.7 1417.3000000000002 515.0000000000001 C 1420.3000000000002 512.4000000000001 1427.7000000000003 504.9000000000001 1439.5000000000002 492.5000000000001 C 1440.2000000000003 491.7000000000001 1441.2000000000003 491.3000000000001 1442.3000000000002 491.3000000000001 L 1586.5000000000002 491.3000000000001 C 1587.5000000000002 491.3000000000001 1588.5000000000002 491.7000000000001 1589.2000000000003 492.40000000000015 L 1611.7000000000003 514.9000000000001 C 1612.4000000000003 515.6000000000001 1612.8000000000002 516.6000000000001 1612.8000000000002 517.6000000000001 L 1612.8000000000002 585.8000000000002 C 1612.8000000000002 587.9000000000002 1611.1000000000001 589.6000000000001 1609.0000000000002 589.6000000000001 L 1591.9000000000003 589.6000000000001 C 1589.8000000000004 589.6000000000001 1588.1000000000004 587.9000000000001 1588.1000000000004 585.8000000000002 L 1588.1000000000004 519.9000000000002 C 1588.1000000000004 517.8000000000002 1586.4000000000003 516.1000000000003 1584.3000000000004 516.1000000000003 L 1444.5000000000005 516.1000000000003 C 1442.4000000000005 516.1000000000003 1440.7000000000005 517.8000000000003 1440.7000000000005 519.9000000000002 L 1440.7000000000005 585.8000000000002 C 1440.7000000000005 587.9000000000002 1439.0000000000005 589.6000000000001 1436.9000000000005 589.6000000000001 L 1419.8000000000006 589.6000000000001 C 1417.6 589.5 1415.9 587.8 1415.9 585.7 z" stroke-linecap="round" />
</g>
<g transform="matrix(0.83 0 0 0.83 152.2 384)"  >
<path style="stroke: none; stroke-width: 1; stroke-dasharray: none; stroke-linecap: butt; stroke-dashoffset: 0; stroke-linejoin: miter; stroke-miterlimit: 4; fill: rgb(0,255,119); fill-rule: nonzero; opacity: 1;" vector-effect="non-scaling-stroke"  transform=" translate(-423, -460.95)" d="M 446.5 497.4 L 501.6 442.29999999999995 C 492.8 435.19999999999993 483.1 429.29999999999995 472.6 424.79999999999995 L 423.20000000000005 474.19999999999993 L 373.50000000000006 424.49999999999994 C 363.00000000000006 428.99999999999994 353.20000000000005 434.8999999999999 344.40000000000003 441.8999999999999 L 399.90000000000003 497.3999999999999 L 446.5 497.4 z" stroke-linecap="round" />
</g>
<g transform="matrix(0.83 0 0 0.83 218.3 449.95)"  >
<path style="stroke: none; stroke-width: 1; stroke-dasharray: none; stroke-linecap: butt; stroke-dashoffset: 0; stroke-linejoin: miter; stroke-miterlimit: 4; fill: rgb(0,255,119); fill-rule: nonzero; opacity: 1;" vector-effect="non-scaling-stroke"  transform=" translate(-502.15, -540.25)" d="M 489.1 540.5 L 538.4 491.2 C 533.9 480.7 528.1 470.9 521.1 462 L 465.90000000000003 517.2 L 465.90000000000003 563.7 L 520.7 618.5 C 527.8000000000001 609.7 533.7 600 538.2 589.5 L 489.1 540.5 z" stroke-linecap="round" />
</g>
<g transform="matrix(0.83 0 0 0.83 152.03 515.97)"  >
<path style="stroke: none; stroke-width: 1; stroke-dasharray: none; stroke-linecap: butt; stroke-dashoffset: 0; stroke-linejoin: miter; stroke-miterlimit: 4; fill: rgb(0,255,119); fill-rule: nonzero; opacity: 1;" vector-effect="non-scaling-stroke"  transform=" translate(-422.8, -619.3)" d="M 399.5 583.1 L 344.5 638.1 C 353.3 645.1 363.1 651 373.6 655.5 L 422.8 606.3 L 472 655.5 C 482.5 651 492.3 645.1 501.1 638.1 L 446.1 583.1 L 399.5 583.1 z" stroke-linecap="round" />
</g>
<g transform="matrix(0.83 0 0 0.83 86.25 449.66)"  >
<path style="stroke: none; stroke-width: 1; stroke-dasharray: none; stroke-linecap: butt; stroke-dashoffset: 0; stroke-linejoin: miter; stroke-miterlimit: 4; fill: rgb(0,255,119); fill-rule: nonzero; opacity: 1;" vector-effect="non-scaling-stroke"  transform=" translate(-343.7, -539.9)" d="M 380.1 516.7 L 324.8 461.40000000000003 C 317.7 470.20000000000005 311.8 479.90000000000003 307.3 490.40000000000003 L 356.8 539.9000000000001 L 307.3 589.4000000000001 C 311.8 599.9000000000001 317.7 609.6000000000001 324.8 618.4000000000001 L 380.1 563.1000000000001 L 380.1 516.7 z" stroke-linecap="round" />
</g>
<g transform="matrix(0 0 0 0 0 0)"  >
<g style=""   >
</g>
</g>
<g transform="matrix(0 0 0 0 0 0)"  >
<g style=""   >
</g>
</g>
<g transform="matrix(0 0 0 0 0 0)"  >
<g style=""   >
</g>
</g>
<g transform="matrix(0 0 0 0 0 0)"  >
<g style=""   >
</g>
</g>
<g transform="matrix(0 0 0 0 0 0)"  >
<g style=""   >
</g>
</g>
<g transform="matrix(0 0 0 0 0 0)"  >
<g style=""   >
</g>
</g>
<g transform="matrix(0 0 0 0 0 0)"  >
<g style=""   >
</g>
</g>
<g transform="matrix(0 0 0 0 0 0)"  >
<g style=""   >
</g>
</g>
<g transform="matrix(0 0 0 0 0 0)"  >
<g style=""   >
</g>
</g>
<g transform="matrix(0 0 0 0 0 0)"  >
<g style=""   >
</g>
</g>
<g transform="matrix(NaN NaN NaN NaN 0 0)"  >
<g style=""   >
</g>
</g>
<g transform="matrix(NaN NaN NaN NaN 0 0)"  >
<g style=""   >
</g>
</g>
</svg>